<svg width="472" height="47" viewBox="0 0 472 47" fill="none" xmlns="http://www.w3.org/2000/svg">
<g clip-path="url(#clip0_1_302)">
<path d="M16.7922 12.3258C18.1066 12.3985 19.339 12.9877 20.2209 13.9652C21.1028 14.9426 21.5626 16.2289 21.5002 17.5438C21.5002 20.6158 18.8482 22.5028 16.3032 24.7658C13.7912 27.0088 12.4382 28.2348 12.0002 28.5178C11.5232 28.2088 9.85717 26.6948 7.69717 24.7658C5.14117 22.4938 2.50017 20.5888 2.50017 17.5438C2.43773 16.2289 2.89755 14.9426 3.77943 13.9652C4.6613 12.9877 5.89373 12.3985 7.20817 12.3258C7.93631 12.3038 8.65772 12.471 9.30188 12.8112C9.94603 13.1515 10.4909 13.653 10.8832 14.2668C11.7232 15.4418 11.8632 16.0298 12.0032 16.0298C12.1432 16.0298 12.2812 15.4418 13.1132 14.2638C13.5032 13.6472 14.0483 13.1436 14.6939 12.8036C15.3395 12.4635 16.063 12.2988 16.7922 12.3258ZM16.7922 10.3258C15.8841 10.2968 14.9812 10.4729 14.1506 10.8412C13.3201 11.2095 12.5833 11.7604 11.9952 12.4528C11.4075 11.7624 10.6723 11.2128 9.84371 10.8446C9.01515 10.4764 8.11445 10.2992 7.20817 10.3258C5.36304 10.398 3.62155 11.1978 2.36451 12.5504C1.10747 13.9031 0.43716 15.6984 0.500165 17.5438C0.500165 21.1538 3.05017 23.3708 5.51517 25.5138C5.79817 25.7598 6.08417 26.0078 6.36817 26.2608L7.39517 27.1788C8.51521 28.2446 9.68943 29.252 10.9132 30.1968C11.2369 30.4065 11.6144 30.518 12.0002 30.518C12.3859 30.518 12.7634 30.4065 13.0872 30.1968C14.3499 29.2231 15.5602 28.1833 16.7132 27.0818L17.6352 26.2578C17.9282 25.9978 18.2252 25.7388 18.5202 25.4838C20.8542 23.4588 23.5002 21.1638 23.5002 17.5438C23.5632 15.6984 22.8929 13.9031 21.6358 12.5504C20.3788 11.1978 18.6373 10.398 16.7922 10.3258Z" fill="#262626"/>
</g>
<g clip-path="url(#clip1_1_302)">
<path d="M60.6561 25.4299C61.8712 23.328 62.2796 20.8556 61.8049 18.4746C61.3302 16.0936 60.0049 13.9668 58.0766 12.4916C56.1483 11.0165 53.7489 10.2937 51.3266 10.4585C48.9044 10.6232 46.6249 11.6642 44.9141 13.3869C43.2033 15.1096 42.1782 17.3962 42.0303 19.8195C41.8824 22.2429 42.6217 24.6372 44.1103 26.5552C45.5988 28.4732 47.7347 29.7837 50.1189 30.2419C52.5032 30.7001 54.9727 30.2745 57.0661 29.0449L62.0001 30.4219L60.6561 25.4299Z" stroke="#262626" stroke-width="2" stroke-linejoin="round"/>
</g>
<g clip-path="url(#clip2_1_302)">
<path d="M102 11.4219L89.2178 18.5049" stroke="#262626" stroke-width="2" stroke-linejoin="round"/>
<path d="M91.698 28.7559L102 11.4229H82L89.218 18.5059L91.698 28.7559Z" stroke="#262626" stroke-width="2" stroke-linejoin="round"/>
</g>
<g clip-path="url(#clip3_1_302)">
<path d="M468 29.4219L460 21.8619L452 29.4219V11.4219H468V29.4219Z" stroke="#262626" stroke-width="2" stroke-linecap="round" stroke-linejoin="round"/>
</g>
<defs>
<clipPath id="clip0_1_302">
<rect width="24" height="24" fill="white" transform="translate(0 8.42188)"/>
</clipPath>
<clipPath id="clip1_1_302">
<rect width="24" height="24" fill="white" transform="translate(40 8.42188)"/>
</clipPath>
<clipPath id="clip2_1_302">
<rect width="24" height="24" fill="white" transform="translate(80 8.42188)"/>
</clipPath>
<clipPath id="clip3_1_302">
<rect width="24" height="24" fill="white" transform="translate(448 8.42188)"/>
</clipPath>
</defs>
</svg>
