<svg width="24" height="25" viewBox="0 0 24 25" fill="none" xmlns="http://www.w3.org/2000/svg">
<g clip-path="url(#clip0_1_283)">
<path d="M12 13.9219C12.8284 13.9219 13.5 13.2503 13.5 12.4219C13.5 11.5934 12.8284 10.9219 12 10.9219C11.1716 10.9219 10.5 11.5934 10.5 12.4219C10.5 13.2503 11.1716 13.9219 12 13.9219Z" fill="#262626"/>
<path d="M6 13.9219C6.82843 13.9219 7.5 13.2503 7.5 12.4219C7.5 11.5934 6.82843 10.9219 6 10.9219C5.17157 10.9219 4.5 11.5934 4.5 12.4219C4.5 13.2503 5.17157 13.9219 6 13.9219Z" fill="#262626"/>
<path d="M18 13.9219C18.8284 13.9219 19.5 13.2503 19.5 12.4219C19.5 11.5934 18.8284 10.9219 18 10.9219C17.1716 10.9219 16.5 11.5934 16.5 12.4219C16.5 13.2503 17.1716 13.9219 18 13.9219Z" fill="#262626"/>
</g>
<defs>
<clipPath id="clip0_1_283">
<rect width="24" height="24" fill="white" transform="translate(0 0.421875)"/>
</clipPath>
</defs>
</svg>
