<svg width="30" height="18" viewBox="0 0 30 18" fill="none" xmlns="http://www.w3.org/2000/svg">
<path d="M5.1377 8.99609V8.71582C5.1377 8.32389 5.26074 8.00033 5.50684 7.74512C5.75749 7.48991 6.09701 7.3623 6.52539 7.3623C6.95833 7.3623 7.30013 7.48991 7.55078 7.74512C7.80143 8.00033 7.92676 8.32389 7.92676 8.71582V8.99609C7.92676 9.38346 7.80143 9.70475 7.55078 9.95996C7.30469 10.2106 6.96517 10.3359 6.53223 10.3359C6.10384 10.3359 5.76432 10.2106 5.51367 9.95996C5.26302 9.70475 5.1377 9.38346 5.1377 8.99609ZM19.4932 11.3066C19.4932 11.9128 19.3519 12.4277 19.0693 12.8516C18.7913 13.2708 18.4131 13.5898 17.9346 13.8086C17.4606 14.0273 16.9251 14.1367 16.3281 14.1367C15.7311 14.1367 15.1934 14.0273 14.7148 13.8086C14.2363 13.5898 13.8581 13.2708 13.5801 12.8516C13.3021 12.4277 13.1631 11.9128 13.1631 11.3066C13.1631 10.9102 13.2383 10.5479 13.3887 10.2197C13.5436 9.88704 13.7601 9.59766 14.0381 9.35156C14.3206 9.10547 14.6533 8.91634 15.0361 8.78418C15.4235 8.64746 15.8496 8.5791 16.3145 8.5791C16.9251 8.5791 17.4697 8.69759 17.9482 8.93457C18.4268 9.16699 18.8027 9.48828 19.0762 9.89844C19.3542 10.3086 19.4932 10.778 19.4932 11.3066ZM18.2217 11.2793C18.2217 10.9102 18.1419 10.5843 17.9824 10.3018C17.8229 10.0146 17.5996 9.79134 17.3125 9.63184C17.0254 9.47233 16.6927 9.39258 16.3145 9.39258C15.9271 9.39258 15.5921 9.47233 15.3096 9.63184C15.0316 9.79134 14.8151 10.0146 14.6602 10.3018C14.5052 10.5843 14.4277 10.9102 14.4277 11.2793C14.4277 11.6621 14.5029 11.9902 14.6533 12.2637C14.8083 12.5326 15.027 12.7399 15.3096 12.8857C15.5967 13.027 15.9362 13.0977 16.3281 13.0977C16.7201 13.0977 17.0573 13.027 17.3398 12.8857C17.6224 12.7399 17.8389 12.5326 17.9893 12.2637C18.1442 11.9902 18.2217 11.6621 18.2217 11.2793ZM19.2607 6.6377C19.2607 7.12077 19.1331 7.55599 18.8779 7.94336C18.6227 8.33073 18.2741 8.63607 17.832 8.85938C17.39 9.08268 16.8887 9.19434 16.3281 9.19434C15.7585 9.19434 15.2503 9.08268 14.8037 8.85938C14.3617 8.63607 14.0153 8.33073 13.7646 7.94336C13.514 7.55599 13.3887 7.12077 13.3887 6.6377C13.3887 6.05892 13.514 5.56673 13.7646 5.16113C14.0199 4.75553 14.3685 4.44564 14.8105 4.23145C15.2526 4.01725 15.7562 3.91016 16.3213 3.91016C16.891 3.91016 17.3968 4.01725 17.8389 4.23145C18.2809 4.44564 18.6273 4.75553 18.8779 5.16113C19.1331 5.56673 19.2607 6.05892 19.2607 6.6377ZM17.9961 6.6582C17.9961 6.32552 17.9255 6.03158 17.7842 5.77637C17.6429 5.52116 17.4469 5.32064 17.1963 5.1748C16.9456 5.02441 16.654 4.94922 16.3213 4.94922C15.9886 4.94922 15.6969 5.01986 15.4463 5.16113C15.2002 5.29785 15.0065 5.49382 14.8652 5.74902C14.7285 6.00423 14.6602 6.30729 14.6602 6.6582C14.6602 7 14.7285 7.2985 14.8652 7.55371C15.0065 7.80892 15.2025 8.00716 15.4531 8.14844C15.7038 8.28971 15.9954 8.36035 16.3281 8.36035C16.6608 8.36035 16.9502 8.28971 17.1963 8.14844C17.4469 8.00716 17.6429 7.80892 17.7842 7.55371C17.9255 7.2985 17.9961 7 17.9961 6.6582ZM22.4941 3.5V14H21.2295V3.5H22.4941ZM22.1934 10.0215L21.667 10.001C21.6715 9.49512 21.7467 9.02799 21.8926 8.59961C22.0384 8.16667 22.2435 7.79069 22.5078 7.47168C22.7721 7.15267 23.0866 6.90658 23.4512 6.7334C23.8203 6.55566 24.2282 6.4668 24.6748 6.4668C25.0394 6.4668 25.3675 6.51693 25.6592 6.61719C25.9508 6.71289 26.1992 6.86784 26.4043 7.08203C26.6139 7.29622 26.7734 7.57422 26.8828 7.91602C26.9922 8.25326 27.0469 8.66569 27.0469 9.15332V14H25.7754V9.13965C25.7754 8.75228 25.7184 8.44238 25.6045 8.20996C25.4906 7.97298 25.3242 7.80208 25.1055 7.69727C24.8867 7.58789 24.6178 7.5332 24.2988 7.5332C23.9844 7.5332 23.6973 7.59928 23.4375 7.73145C23.1823 7.86361 22.9613 8.0459 22.7744 8.27832C22.5921 8.51074 22.4486 8.77734 22.3438 9.07812C22.2435 9.37435 22.1934 9.6888 22.1934 10.0215Z" fill="#8E8E8E"/>
</svg>
