<svg width="30" height="19" viewBox="0 0 30 19" fill="none" xmlns="http://www.w3.org/2000/svg">
<path d="M5.3252 9.41797V9.1377C5.3252 8.74577 5.44824 8.4222 5.69434 8.16699C5.94499 7.91178 6.28451 7.78418 6.71289 7.78418C7.14583 7.78418 7.48763 7.91178 7.73828 8.16699C7.98893 8.4222 8.11426 8.74577 8.11426 9.1377V9.41797C8.11426 9.80534 7.98893 10.1266 7.73828 10.3818C7.49219 10.6325 7.15267 10.7578 6.71973 10.7578C6.29134 10.7578 5.95182 10.6325 5.70117 10.3818C5.45052 10.1266 5.3252 9.80534 5.3252 9.41797ZM19.9268 13.3828V14.4219H13.4121V13.5127L16.6729 9.88281C17.0739 9.4362 17.3838 9.05794 17.6025 8.74805C17.8258 8.43359 17.9808 8.15332 18.0674 7.90723C18.1585 7.65658 18.2041 7.40137 18.2041 7.1416C18.2041 6.81348 18.1357 6.51725 17.999 6.25293C17.8669 5.98405 17.6709 5.76986 17.4111 5.61035C17.1514 5.45085 16.8369 5.37109 16.4678 5.37109C16.0257 5.37109 15.6566 5.45768 15.3604 5.63086C15.0687 5.79948 14.8499 6.03646 14.7041 6.3418C14.5583 6.64714 14.4854 6.99805 14.4854 7.39453H13.2207C13.2207 6.83398 13.3438 6.32129 13.5898 5.85645C13.8359 5.3916 14.2005 5.02246 14.6836 4.74902C15.1667 4.47103 15.7614 4.33203 16.4678 4.33203C17.0967 4.33203 17.6344 4.44368 18.0811 4.66699C18.5277 4.88574 18.8695 5.19564 19.1064 5.59668C19.348 5.99316 19.4688 6.45801 19.4688 6.99121C19.4688 7.28288 19.4186 7.5791 19.3184 7.87988C19.2227 8.17611 19.0882 8.47233 18.915 8.76855C18.7464 9.06478 18.5482 9.35645 18.3203 9.64355C18.097 9.93066 17.8577 10.2132 17.6025 10.4912L14.9365 13.3828H19.9268ZM26.0791 12.9863V3.92188H27.3506V14.4219H26.1885L26.0791 12.9863ZM21.1025 10.8057V10.6621C21.1025 10.097 21.1709 9.58431 21.3076 9.12402C21.4489 8.65918 21.6471 8.26042 21.9023 7.92773C22.1621 7.59505 22.4697 7.33984 22.8252 7.16211C23.1852 6.97982 23.5863 6.88867 24.0283 6.88867C24.4932 6.88867 24.8988 6.9707 25.2451 7.13477C25.596 7.29427 25.8923 7.52897 26.1338 7.83887C26.3799 8.14421 26.5736 8.51335 26.7148 8.94629C26.8561 9.37923 26.9541 9.86914 27.0088 10.416V11.0449C26.9587 11.5872 26.8607 12.0749 26.7148 12.5078C26.5736 12.9408 26.3799 13.3099 26.1338 13.6152C25.8923 13.9206 25.596 14.1553 25.2451 14.3193C24.8942 14.4788 24.484 14.5586 24.0146 14.5586C23.5817 14.5586 23.1852 14.4652 22.8252 14.2783C22.4697 14.0915 22.1621 13.8294 21.9023 13.4922C21.6471 13.1549 21.4489 12.7585 21.3076 12.3027C21.1709 11.8424 21.1025 11.3434 21.1025 10.8057ZM22.374 10.6621V10.8057C22.374 11.1748 22.4105 11.5212 22.4834 11.8447C22.5609 12.1683 22.6794 12.4531 22.8389 12.6992C22.9984 12.9453 23.2012 13.139 23.4473 13.2803C23.6934 13.417 23.9873 13.4854 24.3291 13.4854C24.7484 13.4854 25.0924 13.3965 25.3613 13.2188C25.6348 13.041 25.8535 12.8063 26.0176 12.5146C26.1816 12.223 26.3092 11.9062 26.4004 11.5645V9.91699C26.3457 9.66634 26.266 9.4248 26.1611 9.19238C26.0609 8.9554 25.9287 8.74577 25.7646 8.56348C25.6051 8.37663 25.4069 8.22852 25.1699 8.11914C24.9375 8.00977 24.6618 7.95508 24.3428 7.95508C23.9964 7.95508 23.6979 8.02799 23.4473 8.17383C23.2012 8.3151 22.9984 8.51107 22.8389 8.76172C22.6794 9.00781 22.5609 9.29492 22.4834 9.62305C22.4105 9.94661 22.374 10.293 22.374 10.6621Z" fill="#8E8E8E"/>
</svg>
